<svg width="32" height="32" viewBox="0 0 32 32" fill="none" xmlns="http://www.w3.org/2000/svg">
<path fill-rule="evenodd" clip-rule="evenodd" d="M25.3334 14.6666H17.3334V6.66665C17.3334 5.92931 16.736 5.33331 16 5.33331C15.264 5.33331 14.6667 5.92931 14.6667 6.66665V14.6666H6.66671C5.93071 14.6666 5.33337 15.2626 5.33337 16C5.33337 16.7373 5.93071 17.3333 6.66671 17.3333H14.6667V25.3333C14.6667 26.0706 15.264 26.6666 16 26.6666C16.736 26.6666 17.3334 26.0706 17.3334 25.3333V17.3333H25.3334C26.0694 17.3333 26.6667 16.7373 26.6667 16C26.6667 15.2626 26.0694 14.6666 25.3334 14.6666" fill="black"/>
</svg>
