<svg width="14" height="14" viewBox="0 0 14 14" fill="none" xmlns="http://www.w3.org/2000/svg">
<path fill-rule="evenodd" clip-rule="evenodd" d="M7.82489 7L10.3291 4.49575C10.5572 4.26767 10.5572 3.899 10.3291 3.67092C10.1011 3.44283 9.73239 3.44283 9.5043 3.67092L7.00005 6.17517L4.4958 3.67092C4.26772 3.44283 3.89905 3.44283 3.67097 3.67092C3.44289 3.899 3.44289 4.26767 3.67097 4.49575L6.17522 7L3.67097 9.50425C3.44289 9.73233 3.44289 10.101 3.67097 10.3291C3.78472 10.4428 3.93405 10.5 4.08339 10.5C4.23272 10.5 4.38205 10.4428 4.4958 10.3291L7.00005 7.82483L9.5043 10.3291C9.61805 10.4428 9.76739 10.5 9.91672 10.5C10.0661 10.5 10.2154 10.4428 10.3291 10.3291C10.5572 10.101 10.5572 9.73233 10.3291 9.50425L7.82489 7Z" fill="black"/>
</svg>
