<svg width="20" height="20" viewBox="0 0 20 20" fill="none" xmlns="http://www.w3.org/2000/svg">
<path fill-rule="evenodd" clip-rule="evenodd" d="M9.06415 14.5475L10.7525 15.825V12.0308C10.7525 11.8925 10.7875 11.7567 10.8525 11.635L14.4358 5H5.53582L8.97082 11.6483C9.03248 11.7667 9.06415 11.8983 9.06415 12.0308V14.5475ZM11.5858 18.3333C11.4083 18.3333 11.2308 18.2767 11.0833 18.1642L7.72832 15.6267C7.51999 15.4692 7.39749 15.2233 7.39749 14.9625V12.2342L3.42665 4.54917C3.29249 4.29083 3.30332 3.98167 3.45499 3.73333C3.60582 3.485 3.87582 3.33333 4.16665 3.33333H15.8333C16.1267 3.33333 16.3983 3.4875 16.5492 3.74C16.6992 3.99167 16.7058 4.30417 16.5667 4.5625L12.4192 12.2417V17.5C12.4192 17.8158 12.2408 18.105 11.9575 18.2458C11.84 18.3042 11.7125 18.3333 11.5858 18.3333Z" fill="black"/>
</svg>
