<svg width="87" height="22" viewBox="0 0 87 22" fill="none" xmlns="http://www.w3.org/2000/svg">
<path d="M4.356 3.976V9.59H11.664V12.894H4.356V21H0.128V0.685999H13.064V3.976H4.356ZM19.404 6.566V21H15.54V6.566H19.404ZM19.866 2.464C19.866 2.79067 19.8007 3.094 19.67 3.374C19.5394 3.654 19.362 3.90133 19.138 4.116C18.9234 4.33067 18.6667 4.49867 18.368 4.62C18.0787 4.74133 17.766 4.802 17.43 4.802C17.1127 4.802 16.8094 4.74133 16.52 4.62C16.24 4.49867 15.9927 4.33067 15.778 4.116C15.5634 3.90133 15.3907 3.654 15.26 3.374C15.1387 3.094 15.078 2.79067 15.078 2.464C15.078 2.13733 15.1387 1.834 15.26 1.554C15.3907 1.26467 15.5634 1.01267 15.778 0.797999C15.9927 0.583332 16.24 0.415332 16.52 0.293999C16.8094 0.172665 17.1127 0.111999 17.43 0.111999C17.766 0.111999 18.0787 0.172665 18.368 0.293999C18.6667 0.415332 18.9234 0.583332 19.138 0.797999C19.362 1.01267 19.5394 1.26467 19.67 1.554C19.8007 1.834 19.866 2.13733 19.866 2.464ZM26.3275 8.946C26.7848 8.12467 27.3121 7.476 27.9095 7C28.5068 6.524 29.2068 6.286 30.0095 6.286C30.6628 6.286 31.1948 6.44 31.6055 6.748L31.3535 9.604C31.3068 9.79067 31.2321 9.92133 31.1295 9.996C31.0361 10.0613 30.9055 10.094 30.7375 10.094C30.5881 10.094 30.3735 10.0753 30.0935 10.038C29.8135 9.99133 29.5521 9.968 29.3095 9.968C28.9548 9.968 28.6375 10.0193 28.3575 10.122C28.0868 10.2247 27.8441 10.3693 27.6295 10.556C27.4148 10.7427 27.2188 10.9713 27.0415 11.242C26.8735 11.5127 26.7148 11.8207 26.5655 12.166V21H22.7015V6.566H24.9835C25.3755 6.566 25.6461 6.636 25.7955 6.776C25.9448 6.916 26.0521 7.15867 26.1175 7.504L26.3275 8.946ZM42.084 12.082C42.084 11.6807 42.028 11.298 41.916 10.934C41.8134 10.57 41.6454 10.248 41.412 9.968C41.1787 9.688 40.8847 9.46867 40.53 9.31C40.1754 9.142 39.7507 9.058 39.256 9.058C38.332 9.058 37.6087 9.31933 37.086 9.842C36.5634 10.3647 36.2227 11.1113 36.064 12.082H42.084ZM36.008 14.378C36.1294 15.7313 36.512 16.7207 37.156 17.346C37.8094 17.9713 38.6587 18.284 39.704 18.284C40.236 18.284 40.6934 18.2233 41.076 18.102C41.468 17.9713 41.8087 17.8313 42.098 17.682C42.3967 17.5233 42.6627 17.3833 42.896 17.262C43.1387 17.1313 43.3767 17.066 43.61 17.066C43.9087 17.066 44.142 17.178 44.31 17.402L45.43 18.802C45.0194 19.278 44.5667 19.6747 44.072 19.992C43.5774 20.3 43.064 20.5473 42.532 20.734C42 20.9113 41.4634 21.0327 40.922 21.098C40.3807 21.1727 39.858 21.21 39.354 21.21C38.346 21.21 37.4034 21.0467 36.526 20.72C35.658 20.384 34.8974 19.894 34.244 19.25C33.6 18.5967 33.0914 17.7893 32.718 16.828C32.3447 15.8667 32.158 14.7513 32.158 13.482C32.158 12.502 32.3167 11.578 32.634 10.71C32.9607 9.842 33.4274 9.086 34.034 8.442C34.6407 7.798 35.378 7.28933 36.246 6.916C37.114 6.53333 38.094 6.342 39.186 6.342C40.11 6.342 40.9594 6.49133 41.734 6.79C42.518 7.07933 43.19 7.504 43.75 8.064C44.3194 8.624 44.758 9.31467 45.066 10.136C45.3834 10.948 45.542 11.8767 45.542 12.922C45.542 13.2113 45.528 13.4493 45.5 13.636C45.472 13.8227 45.4254 13.972 45.36 14.084C45.2947 14.196 45.206 14.2753 45.094 14.322C44.982 14.3593 44.8374 14.378 44.66 14.378H36.008ZM48.7437 21V9.338L47.6237 9.142C47.3343 9.086 47.0963 8.98333 46.9097 8.834C46.7323 8.68467 46.6437 8.47 46.6437 8.19V6.65H48.7437V5.698C48.7437 4.87667 48.8697 4.13467 49.1217 3.472C49.383 2.8 49.7517 2.23533 50.2277 1.778C50.7037 1.31133 51.287 0.951999 51.9777 0.699999C52.6683 0.447999 53.4477 0.321998 54.3157 0.321998C54.6517 0.321998 54.969 0.345332 55.2677 0.391998C55.5757 0.429332 55.8837 0.489999 56.1917 0.573998L56.1077 2.478C56.089 2.76733 55.963 2.95867 55.7297 3.052C55.5057 3.136 55.2537 3.178 54.9737 3.178C54.5817 3.178 54.227 3.22 53.9097 3.304C53.6017 3.388 53.3403 3.53267 53.1257 3.738C52.911 3.934 52.7477 4.20467 52.6357 4.55C52.5237 4.886 52.4677 5.306 52.4677 5.81V6.65H56.0517V9.338H52.5937V21H48.7437ZM64.0201 6.342C65.1027 6.342 66.0874 6.51467 66.9741 6.86C67.8607 7.20533 68.6214 7.7 69.2561 8.344C69.8907 8.97867 70.3807 9.75333 70.7261 10.668C71.0714 11.5827 71.2441 12.614 71.2441 13.762C71.2441 14.91 71.0714 15.946 70.7261 16.87C70.3807 17.7847 69.8907 18.564 69.2561 19.208C68.6214 19.852 67.8607 20.3467 66.9741 20.692C66.0874 21.0373 65.1027 21.21 64.0201 21.21C62.9281 21.21 61.9341 21.0373 61.0381 20.692C60.1514 20.3467 59.3907 19.852 58.7561 19.208C58.1214 18.564 57.6267 17.7847 57.2721 16.87C56.9267 15.946 56.7541 14.91 56.7541 13.762C56.7541 12.614 56.9267 11.5827 57.2721 10.668C57.6267 9.75333 58.1214 8.97867 58.7561 8.344C59.3907 7.7 60.1514 7.20533 61.0381 6.86C61.9341 6.51467 62.9281 6.342 64.0201 6.342ZM64.0201 18.312C65.1214 18.312 65.9381 17.934 66.4701 17.178C67.0021 16.4127 67.2681 15.2787 67.2681 13.776C67.2681 12.2827 67.0021 11.158 66.4701 10.402C65.9381 9.63667 65.1214 9.254 64.0201 9.254C62.8907 9.254 62.0601 9.63667 61.5281 10.402C60.9961 11.158 60.7301 12.2827 60.7301 13.776C60.7301 15.2787 60.9961 16.4127 61.5281 17.178C62.0601 17.934 62.8907 18.312 64.0201 18.312ZM86.328 21H82.618C82.338 21 82.1093 20.93 81.932 20.79C81.764 20.65 81.6286 20.4867 81.526 20.3L78.684 15.554C78.6 15.8713 78.4786 16.1513 78.32 16.394L75.884 20.3C75.772 20.4773 75.632 20.6407 75.464 20.79C75.3053 20.93 75.1 21 74.848 21H71.404L76.304 13.552L71.6 6.566H75.31C75.59 6.566 75.7953 6.60333 75.926 6.678C76.0566 6.75267 76.1733 6.874 76.276 7.042L79.104 11.62C79.1506 11.4613 79.2113 11.3027 79.286 11.144C79.3606 10.976 79.4493 10.8127 79.552 10.654L81.722 7.112C81.946 6.748 82.2353 6.566 82.59 6.566H86.132L81.428 13.384L86.328 21Z" fill="#20123A"/>
</svg>
